<svg xmlns="http://www.w3.org/2000/svg" viewBox="0 0 320 320" role="img" aria-labelledby="title">
  <title>SoundCloud Logo</title>
  <defs>
    <linearGradient id="bg" x1="0" y1="0" x2="1" y2="1">
      <stop offset="0%" stop-color="#ff7a00"/>
      <stop offset="100%" stop-color="#ff5500"/>
    </linearGradient>
  </defs>

  <rect width="320" height="320" rx="38" fill="url(#bg)"/>

  <g fill="#ffffff" transform="translate(42 112)">
    <rect x="0" y="64" width="14" height="36" rx="7"/>
    <rect x="20" y="56" width="14" height="44" rx="7"/>
    <rect x="40" y="48" width="14" height="52" rx="7"/>
    <rect x="60" y="40" width="14" height="60" rx="7"/>
    <path d="M88 100h116c20 0 36-16 36-36S224 28 204 28h-4c-4-24-24-42-49-42-22 0-41 14-47 34-2-1-5-1-7-1-16 0-29 13-29 29 0 6 2 12 5 17v35h15z"/>
  </g>
</svg>
